<svg width="193" height="40" viewBox="0 0 193 40" fill="none" xmlns="http://www.w3.org/2000/svg">
<path d="M9.61333 32H0.786667V0.746667H4.30667C5.24889 0.746667 6.67111 0.711112 8.57333 0.640001C10.4756 0.551112 12.04 0.506668 13.2667 0.506668C16.7156 0.506668 19.3289 1.42222 21.1067 3.25333C22.8844 5.08444 23.7733 7.83111 23.7733 11.4933C23.7733 13.6978 23.48 15.7067 22.8933 17.52C22.3244 19.3156 21.5511 20.7911 20.5733 21.9467C19.5956 23.1022 18.4844 23.9911 17.24 24.6133C15.9956 25.2356 14.68 25.5467 13.2933 25.5467C13.1156 25.5467 12.9289 25.5467 12.7333 25.5467C12.5556 25.5467 12.3867 25.5467 12.2267 25.5467C12.0844 25.5289 11.9067 25.52 11.6933 25.52C11.4978 25.5022 11.3378 25.4933 11.2133 25.4933C11.1067 25.4756 10.9467 25.4667 10.7333 25.4667C10.5378 25.4489 10.4044 25.44 10.3333 25.44C10.2622 25.44 10.1289 25.4311 9.93333 25.4133C9.73778 25.3956 9.63111 25.3867 9.61333 25.3867V32ZM15.0267 10.32C15.0267 9.00444 14.6711 7.93778 13.96 7.12C13.2489 6.30222 12.2267 5.89333 10.8933 5.89333H9.61333V19.76H10.6C12.0044 19.76 13.0889 19.2889 13.8533 18.3467C14.6356 17.4044 15.0267 16.0444 15.0267 14.2667V10.32ZM34.6933 32H26.08V14.7467L24.48 13.76V10.7467L30.2133 9.33333H32.3733L33.1467 15.68C33.8756 11.3244 36.2133 9.14667 40.16 9.14667C40.6044 9.14667 41.0667 9.22667 41.5467 9.38667L40.64 18.88C40.2667 18.5422 39.4489 18.3733 38.1867 18.3733C36.3733 18.3733 35.2089 18.8533 34.6933 19.8133V32ZM54.3781 29.36C55.1603 29.36 55.7559 29.04 56.1648 28.4C56.5915 27.7422 56.8048 26.8444 56.8048 25.7067V17.28C56.8048 13.8133 55.987 12.08 54.3515 12.08C53.587 12.08 52.9915 12.3911 52.5648 13.0133C52.1381 13.6356 51.9248 14.5156 51.9248 15.6533V24.32C51.9248 27.68 52.7426 29.36 54.3781 29.36ZM54.1648 32.56C50.0937 32.56 47.1159 31.6356 45.2315 29.7867C43.347 27.9378 42.4048 24.9867 42.4048 20.9333C42.4048 16.9156 43.3559 13.8933 45.2581 11.8667C47.1603 9.82222 50.2537 8.8 54.5381 8.8C58.7159 8.8 61.7292 9.77778 63.5781 11.7333C65.4448 13.6711 66.3781 16.6133 66.3781 20.56C66.3781 24.6489 65.3915 27.6711 63.4181 29.6267C61.4626 31.5822 58.3781 32.56 54.1648 32.56Z" fill="#8700BD"/>
<path d="M69.4972 39.7727V11.2727H75.1648V14.7543H75.4212C75.6731 14.1965 76.0374 13.6297 76.5142 13.054C77 12.4692 77.6297 11.9834 78.4034 11.5966C79.1861 11.2008 80.1577 11.0028 81.3182 11.0028C82.8295 11.0028 84.224 11.3987 85.5014 12.1903C86.7789 12.973 87.8 14.156 88.5646 15.7393C89.3293 17.3137 89.7116 19.2884 89.7116 21.6634C89.7116 23.9754 89.3383 25.9276 88.5916 27.5199C87.8539 29.1032 86.8464 30.3042 85.5689 31.1229C84.3004 31.9325 82.879 32.3374 81.3047 32.3374C80.1892 32.3374 79.2401 32.1529 78.4574 31.7841C77.6837 31.4152 77.0495 30.9519 76.5547 30.3942C76.0599 29.8274 75.6821 29.2562 75.4212 28.6804H75.2457V39.7727H69.4972ZM75.1243 21.6364C75.1243 22.8688 75.2952 23.9439 75.6371 24.8615C75.9789 25.7791 76.4737 26.4943 77.1214 27.0071C77.7692 27.5109 78.5563 27.7628 79.483 27.7628C80.4186 27.7628 81.2102 27.5064 81.858 26.9936C82.5057 26.4718 82.996 25.7521 83.3288 24.8345C83.6707 23.9079 83.8416 22.8419 83.8416 21.6364C83.8416 20.4399 83.6752 19.3873 83.3423 18.4787C83.0095 17.5701 82.5192 16.8594 81.8714 16.3466C81.2237 15.8338 80.4276 15.5774 79.483 15.5774C78.5473 15.5774 77.7557 15.8248 77.108 16.3196C76.4692 16.8144 75.9789 17.5161 75.6371 18.4247C75.2952 19.3333 75.1243 20.4039 75.1243 21.6364ZM102.99 32.4048C100.858 32.4048 99.0227 31.973 97.4844 31.1094C95.955 30.2367 94.7765 29.0043 93.9489 27.4119C93.1212 25.8106 92.7074 23.9169 92.7074 21.7308C92.7074 19.5987 93.1212 17.7275 93.9489 16.1172C94.7765 14.5069 95.9415 13.2519 97.4439 12.3523C98.9553 11.4527 100.728 11.0028 102.761 11.0028C104.128 11.0028 105.401 11.2232 106.58 11.6641C107.767 12.0959 108.802 12.7481 109.683 13.6207C110.574 14.4934 111.267 15.5909 111.761 16.9134C112.256 18.2268 112.504 19.7652 112.504 21.5284V23.1072H95.0014V19.5447H107.092C107.092 18.7171 106.912 17.9839 106.553 17.3452C106.193 16.7064 105.693 16.2071 105.055 15.8473C104.425 15.4785 103.692 15.294 102.855 15.294C101.982 15.294 101.209 15.4964 100.534 15.9013C99.8684 16.2971 99.3466 16.8324 98.9688 17.5071C98.5909 18.1728 98.3975 18.915 98.3885 19.7337V23.1207C98.3885 24.1463 98.5774 25.0324 98.9553 25.7791C99.3421 26.5258 99.8864 27.1016 100.588 27.5064C101.29 27.9112 102.122 28.1136 103.085 28.1136C103.723 28.1136 104.308 28.0237 104.839 27.8438C105.37 27.6638 105.824 27.3939 106.202 27.0341C106.58 26.6742 106.867 26.2334 107.065 25.7116L112.382 26.0625C112.112 27.34 111.559 28.4555 110.722 29.4091C109.895 30.3537 108.824 31.0914 107.511 31.6222C106.206 32.1439 104.699 32.4048 102.99 32.4048ZM116.255 32V11.2727H121.828V14.8892H122.044C122.422 13.6027 123.056 12.6312 123.947 11.9744C124.837 11.3087 125.863 10.9759 127.023 10.9759C127.311 10.9759 127.622 10.9938 127.955 11.0298C128.287 11.0658 128.58 11.1153 128.832 11.1783V16.2791C128.562 16.1982 128.188 16.1262 127.712 16.0632C127.235 16.0002 126.799 15.9688 126.403 15.9688C125.557 15.9688 124.801 16.1532 124.136 16.522C123.479 16.8819 122.957 17.3857 122.57 18.0334C122.192 18.6811 122.004 19.4278 122.004 20.2734V32H116.255ZM137.552 4.36364V32H131.804V4.36364H137.552ZM142.157 32V11.2727H147.906V32H142.157ZM145.045 8.60085C144.19 8.60085 143.457 8.31747 142.846 7.75071C142.243 7.17495 141.941 6.48674 141.941 5.68608C141.941 4.89441 142.243 4.2152 142.846 3.64844C143.457 3.07268 144.19 2.7848 145.045 2.7848C145.9 2.7848 146.628 3.07268 147.231 3.64844C147.843 4.2152 148.149 4.89441 148.149 5.68608C148.149 6.48674 147.843 7.17495 147.231 7.75071C146.628 8.31747 145.9 8.60085 145.045 8.60085ZM152.403 32V28.5724L162.551 16.0092V15.8608H152.754V11.2727H169.473V15.0107L159.946 27.2635V27.4119H169.824V32H152.403ZM183.072 32.4048C180.94 32.4048 179.105 31.973 177.566 31.1094C176.037 30.2367 174.859 29.0043 174.031 27.4119C173.203 25.8106 172.789 23.9169 172.789 21.7308C172.789 19.5987 173.203 17.7275 174.031 16.1172C174.859 14.5069 176.024 13.2519 177.526 12.3523C179.037 11.4527 180.81 11.0028 182.843 11.0028C184.21 11.0028 185.483 11.2232 186.662 11.6641C187.849 12.0959 188.884 12.7481 189.765 13.6207C190.656 14.4934 191.349 15.5909 191.843 16.9134C192.338 18.2268 192.586 19.7652 192.586 21.5284V23.1072H175.083V19.5447H187.174C187.174 18.7171 186.994 17.9839 186.635 17.3452C186.275 16.7064 185.775 16.2071 185.137 15.8473C184.507 15.4785 183.774 15.294 182.937 15.294C182.065 15.294 181.291 15.4964 180.616 15.9013C179.95 16.2971 179.429 16.8324 179.051 17.5071C178.673 18.1728 178.48 18.915 178.471 19.7337V23.1207C178.471 24.1463 178.659 25.0324 179.037 25.7791C179.424 26.5258 179.968 27.1016 180.67 27.5064C181.372 27.9112 182.204 28.1136 183.167 28.1136C183.805 28.1136 184.39 28.0237 184.921 27.8438C185.452 27.6638 185.906 27.3939 186.284 27.0341C186.662 26.6742 186.949 26.2334 187.147 25.7116L192.464 26.0625C192.194 27.34 191.641 28.4555 190.804 29.4091C189.977 30.3537 188.906 31.0914 187.593 31.6222C186.288 32.1439 184.781 32.4048 183.072 32.4048Z" fill="white"/>
</svg>
