<svg width="58" height="61" viewBox="0 0 58 61" fill="none" xmlns="http://www.w3.org/2000/svg">
<g filter="url(#filter0_d_268_266)">
<path d="M27.4297 48.4291C28.3196 48.4086 29.1737 48.074 29.8407 47.4846C30.5077 46.8951 30.9448 46.0887 31.0746 45.208H23.6435C23.7769 46.1126 24.2345 46.9379 24.9309 47.5305C25.6274 48.123 26.5154 48.4423 27.4297 48.4291Z" fill="#8700BD"/>
<path d="M47.9288 39.3173C46.5665 38.1028 45.3738 36.7105 44.3828 35.1779C43.3009 33.0624 42.6525 30.752 42.4756 28.3825V21.4035C42.4698 20.5558 42.3942 19.7099 42.2495 18.8746C41.1376 18.6524 40.0689 18.2516 39.0849 17.6879C39.46 18.8956 39.6505 20.153 39.65 21.4176V28.3966C39.8232 31.2872 40.6183 34.1063 41.9811 36.6613C42.9565 38.2069 44.1138 39.6298 45.4282 40.8996H9.24744C10.5619 39.6298 11.7192 38.2069 12.6946 36.6613C14.0573 34.1063 14.8525 31.2872 15.0256 28.3966V21.4035C15.0182 19.7685 15.3333 18.1481 15.953 16.635C16.5727 15.122 17.4848 13.746 18.637 12.586C19.7891 11.4259 21.1588 10.5045 22.6676 9.87453C24.1764 9.24455 25.7946 8.91838 27.4297 8.91468C29.8226 8.9166 32.1617 9.62424 34.1544 10.9491C33.9347 10.1424 33.8114 9.31245 33.7871 8.47673V7.58669C32.312 6.86103 30.7272 6.38371 29.0967 6.17393V4.39385C29.0967 3.89364 28.898 3.41392 28.5443 3.06022C28.1906 2.70652 27.7109 2.50781 27.2107 2.50781C26.7105 2.50781 26.2308 2.70652 25.8771 3.06022C25.5234 3.41392 25.3247 3.89364 25.3247 4.39385V6.24456C21.6737 6.75959 18.3323 8.57808 15.9174 11.3643C13.5025 14.1505 12.1771 17.7164 12.186 21.4035V28.3825C12.009 30.752 11.3606 33.0624 10.2788 35.1779C9.3052 36.707 8.13163 38.0991 6.78924 39.3173C6.63854 39.4497 6.51776 39.6126 6.43494 39.7953C6.35212 39.978 6.30915 40.1763 6.3089 40.3769V42.2982C6.3089 42.6729 6.45774 43.0322 6.72269 43.2972C6.98763 43.5621 7.34697 43.711 7.72166 43.711H46.9964C47.3711 43.711 47.7304 43.5621 47.9954 43.2972C48.2603 43.0322 48.4092 42.6729 48.4092 42.2982V40.3769C48.4089 40.1763 48.3659 39.978 48.2831 39.7953C48.2003 39.6126 48.0795 39.4497 47.9288 39.3173Z" fill="#8700BD"/>
<path d="M44.3828 15.5407C48.284 15.5407 51.4466 12.3781 51.4466 8.47689C51.4466 4.57566 48.284 1.41309 44.3828 1.41309C40.4815 1.41309 37.319 4.57566 37.319 8.47689C37.319 12.3781 40.4815 15.5407 44.3828 15.5407Z" fill="#8700BD"/>
</g>
<defs>
<filter id="filter0_d_268_266" x="-3.8125" y="0" width="62.4844" height="72.5264" filterUnits="userSpaceOnUse" color-interpolation-filters="sRGB">
<feFlood flood-opacity="0" result="BackgroundImageFix"/>
<feColorMatrix in="SourceAlpha" type="matrix" values="0 0 0 0 0 0 0 0 0 0 0 0 0 0 0 0 0 0 127 0" result="hardAlpha"/>
<feOffset dy="5.8125"/>
<feGaussianBlur stdDeviation="2.90625"/>
<feComposite in2="hardAlpha" operator="out"/>
<feColorMatrix type="matrix" values="0 0 0 0 0 0 0 0 0 0 0 0 0 0 0 0 0 0 0.25 0"/>
<feBlend mode="normal" in2="BackgroundImageFix" result="effect1_dropShadow_268_266"/>
<feBlend mode="normal" in="SourceGraphic" in2="effect1_dropShadow_268_266" result="shape"/>
</filter>
</defs>
</svg>
